<svg xmlns="http://www.w3.org/2000/svg" viewBox="0 0 512 512" width="512" height="512">
  <defs>
    <linearGradient id="grad1" x1="0%" y1="0%" x2="100%" y2="100%">
      <stop offset="0%" style="stop-color:#6e48aa;stop-opacity:1" />
      <stop offset="100%" style="stop-color:#9d50bb;stop-opacity:1" />
    </linearGradient>
  </defs>
  <circle cx="256" cy="256" r="256" fill="#121212"/>
  <circle cx="256" cy="256" r="240" fill="#1a1a1a"/>
  <path d="M256 120c-48 0-87 39-87 87s39 87 87 87 87-39 87-87-39-87-87-87zm0 174c-58 0-174 29-174 87v43c0 27 22 48 48 48h252c27 0 48-21 48-48v-43c0-58-116-87-174-87z" fill="url(#grad1)"/>
</svg> 