<svg xmlns="http://www.w3.org/2000/svg" width="100" height="100" viewBox="0 0 100 100">
  <filter id="neonGlow" x="-50%" y="-50%" width="200%" height="200%">
    <feGaussianBlur stdDeviation="4" result="blur" />
    <feComposite in="SourceGraphic" in2="blur" operator="over" />
  </filter>
  
  <g filter="url(#neonGlow)">
    <path d="M 30,20 
             C 30,20 30,80 30,80 
             M 30,20 
             C 30,20 60,20 65,25 
             C 70,30 70,45 65,50 
             C 60,55 30,50 30,50" 
          fill="none" 
          stroke="#9900FF" 
          stroke-width="3" 
          stroke-linecap="round" />
  </g>
  
  <g>
    <path d="M 30,20 
             C 30,20 30,80 30,80 
             M 30,20 
             C 30,20 60,20 65,25 
             C 70,30 70,45 65,50 
             C 60,55 30,50 30,50" 
          fill="none" 
          stroke="#cc33ff" 
          stroke-width="1.5" 
          stroke-linecap="round" />
  </g>
</svg> 